<svg width="37" height="37" viewBox="0 0 37 37" fill="none" xmlns="http://www.w3.org/2000/svg">
<path d="M18.4101 29.2502C19.0372 29.2502 19.5675 29.0334 20.0011 28.5998C20.4347 28.1662 20.6509 27.6365 20.6497 27.0106C20.6485 26.3847 20.4323 25.8544 20.0011 25.4196C19.5699 24.9848 19.0396 24.7686 18.4101 24.771C17.7806 24.7734 17.2509 24.9902 16.8209 25.4214C16.3909 25.8526 16.1741 26.3823 16.1705 27.0106C16.1669 27.6389 16.3837 28.1692 16.8209 28.6016C17.258 29.034 17.7878 29.2502 18.4101 29.2502ZM16.7976 22.3523H20.1122C20.1122 21.3668 20.2245 20.5904 20.449 20.0231C20.6736 19.4557 21.3078 18.6793 22.3518 17.6939C23.1281 16.9175 23.7403 16.1782 24.1882 15.4758C24.6361 14.7735 24.8601 13.9302 24.8601 12.946C24.8601 11.2738 24.2479 9.98976 23.0236 9.09392C21.7993 8.19809 20.3511 7.75017 18.6788 7.75017C16.9768 7.75017 15.596 8.19809 14.5365 9.09392C13.477 9.98976 12.7377 11.0648 12.3184 12.3189L15.2747 13.4835C15.424 12.946 15.7602 12.3637 16.2834 11.7366C16.8065 11.1095 17.605 10.796 18.6788 10.796C19.6344 10.796 20.3511 11.0576 20.8288 11.5808C21.3066 12.1039 21.5455 12.6785 21.5455 13.3043C21.5455 13.9016 21.3663 14.4618 21.008 14.9849C20.6497 15.5081 20.2018 15.993 19.6643 16.4398C18.3504 17.6043 17.5441 18.4852 17.2455 19.0825C16.9469 19.6797 16.7976 20.7696 16.7976 22.3523ZM18.4997 36.4168C16.0212 36.4168 13.692 35.9468 11.5122 35.0068C9.33232 34.0668 7.43613 32.7899 5.82363 31.1762C4.21113 29.5625 2.93487 27.6663 1.99484 25.4877C1.05482 23.309 0.584205 20.9798 0.58301 18.5002C0.581816 16.0205 1.05243 13.6913 1.99484 11.5127C2.93726 9.33401 4.21352 7.43782 5.82363 5.82413C7.43375 4.21044 9.32993 2.93417 11.5122 1.99534C13.6944 1.05651 16.0236 0.585894 18.4997 0.583505C20.9758 0.581116 23.3049 1.05173 25.4872 1.99534C27.6694 2.93895 29.5656 4.21521 31.1757 5.82413C32.7858 7.43305 34.0627 9.32923 35.0063 11.5127C35.9499 13.6961 36.4199 16.0253 36.4163 18.5002C36.4128 20.9751 35.9421 23.3042 35.0045 25.4877C34.0669 27.6711 32.7906 29.5673 31.1757 31.1762C29.5608 32.7851 27.6646 34.062 25.4872 35.0068C23.3097 35.9516 20.9805 36.4216 18.4997 36.4168Z" fill="white"/>
</svg>
