<svg width="33" height="33" viewBox="0 0 33 33" fill="none" xmlns="http://www.w3.org/2000/svg">
<path d="M3.58333 32.25C2.59792 32.25 1.75464 31.8994 1.0535 31.1983C0.352361 30.4972 0.00119444 29.6533 0 28.6667V3.58333C0 2.59792 0.351167 1.75464 1.0535 1.0535C1.75583 0.352361 2.59911 0.00119444 3.58333 0H28.6667C29.6521 0 30.496 0.351167 31.1983 1.0535C31.9006 1.75583 32.2512 2.59911 32.25 3.58333V28.6667C32.25 29.6521 31.8994 30.496 31.1983 31.1983C30.4972 31.9006 29.6533 32.2512 28.6667 32.25H3.58333ZM7.16667 25.0833H19.7083V21.5H7.16667V25.0833ZM7.16667 17.9167H25.0833V14.3333H7.16667V17.9167ZM7.16667 10.75H25.0833V7.16667H7.16667V10.75Z" fill="#095BB3"/>
</svg>
