<svg width="33" height="33" viewBox="0 0 33 33" fill="none" xmlns="http://www.w3.org/2000/svg">
<path d="M7.54167 32.625V29.0417H14.7083V23.4875C13.2451 23.159 11.939 22.5397 10.79 21.6295C9.6409 20.7194 8.79703 19.5769 8.25833 18.2021C6.01875 17.9333 4.14526 16.9557 2.63788 15.2691C1.13049 13.5826 0.376194 11.604 0.375 9.33333V7.54167C0.375 6.55625 0.726167 5.71297 1.4285 5.01183C2.13083 4.31069 2.97411 3.95953 3.95833 3.95833H7.54167V0.375H25.4583V3.95833H29.0417C30.0271 3.95833 30.871 4.3095 31.5733 5.01183C32.2756 5.71417 32.6262 6.55744 32.625 7.54167V9.33333C32.625 11.6028 31.8707 13.5814 30.3621 15.2691C28.8535 16.9569 26.9801 17.9345 24.7417 18.2021C24.2042 19.5757 23.3609 20.7182 22.2118 21.6295C21.0628 22.5409 19.7561 23.1602 18.2917 23.4875V29.0417H25.4583V32.625H7.54167ZM7.54167 14.35V7.54167H3.95833V9.33333C3.95833 10.4681 4.28681 11.4911 4.94375 12.4025C5.6007 13.3138 6.46667 13.963 7.54167 14.35ZM25.4583 14.35C26.5333 13.9618 27.3993 13.312 28.0563 12.4007C28.7132 11.4893 29.0417 10.4669 29.0417 9.33333V7.54167H25.4583V14.35Z" fill="white"/>
</svg>
