<svg width="33" height="33" viewBox="0 0 33 33" fill="none" xmlns="http://www.w3.org/2000/svg">
<path d="M7.16667 32.25V28.6667H14.3333V23.1125C12.8701 22.784 11.564 22.1647 10.415 21.2545C9.2659 20.3444 8.42203 19.2019 7.88333 17.8271C5.64375 17.5583 3.77026 16.5807 2.26288 14.8941C0.755486 13.2076 0.00119444 11.229 0 8.95833V7.16667C0 6.18125 0.351167 5.33797 1.0535 4.63683C1.75583 3.93569 2.59911 3.58453 3.58333 3.58333H7.16667V0H25.0833V3.58333H28.6667C29.6521 3.58333 30.496 3.9345 31.1983 4.63683C31.9006 5.33917 32.2512 6.18244 32.25 7.16667V8.95833C32.25 11.2278 31.4957 13.2064 29.9871 14.8941C28.4785 16.5819 26.6051 17.5595 24.3667 17.8271C23.8292 19.2007 22.9859 20.3432 21.8368 21.2545C20.6878 22.1659 19.3811 22.7852 17.9167 23.1125V28.6667H25.0833V32.25H7.16667ZM7.16667 13.975V7.16667H3.58333V8.95833C3.58333 10.0931 3.91181 11.1161 4.56875 12.0275C5.2257 12.9388 6.09167 13.588 7.16667 13.975ZM25.0833 13.975C26.1583 13.5868 27.0243 12.937 27.6813 12.0257C28.3382 11.1143 28.6667 10.0919 28.6667 8.95833V7.16667H25.0833V13.975Z" fill="#095BB3"/>
</svg>
