<svg width="33" height="37" viewBox="0 0 33 37" fill="none" xmlns="http://www.w3.org/2000/svg">
<path d="M0.375 9.54183V5.9585H3.95833V4.16683C3.95833 3.21647 4.33586 2.30504 5.00787 1.63303C5.67987 0.961025 6.59131 0.583496 7.54167 0.583496H18.2917V13.1252L22.7708 10.4377L27.25 13.1252V0.583496H29.0417C30.9229 0.583496 32.625 2.28558 32.625 4.16683V32.8335C32.625 34.7147 30.9229 36.4168 29.0417 36.4168H7.54167C5.66042 36.4168 3.95833 34.7147 3.95833 32.8335V31.0418H0.375V27.4585H3.95833V20.2918H0.375V16.7085H3.95833V9.54183H0.375ZM7.54167 16.7085H3.95833V20.2918H7.54167V16.7085ZM7.54167 9.54183V5.9585H3.95833V9.54183H7.54167ZM7.54167 31.0418V27.4585H3.95833V31.0418H7.54167Z" fill="#095BB3"/>
</svg>
