<svg width="43" height="43" viewBox="0 0 43 43" fill="none" xmlns="http://www.w3.org/2000/svg">
<path d="M5.375 12.5418V8.9585H8.95833V7.16683C8.95833 6.21647 9.33586 5.30504 10.0079 4.63303C10.6799 3.96102 11.5913 3.5835 12.5417 3.5835H23.2917V16.1252L27.7708 13.4377L32.25 16.1252V3.5835H34.0417C35.9229 3.5835 37.625 5.28558 37.625 7.16683V35.8335C37.625 37.7147 35.9229 39.4168 34.0417 39.4168H12.5417C10.6604 39.4168 8.95833 37.7147 8.95833 35.8335V34.0418H5.375V30.4585H8.95833V23.2918H5.375V19.7085H8.95833V12.5418H5.375ZM12.5417 19.7085H8.95833V23.2918H12.5417V19.7085ZM12.5417 12.5418V8.9585H8.95833V12.5418H12.5417ZM12.5417 34.0418V30.4585H8.95833V34.0418H12.5417Z" fill="white"/>
</svg>
