<svg width="71" height="71" viewBox="0 0 71 71" fill="none" xmlns="http://www.w3.org/2000/svg">
<path fill-rule="evenodd" clip-rule="evenodd" d="M53.3459 25.6735C54.0691 25.0712 55.0019 24.7807 55.9392 24.8659C56.8765 24.9511 57.7416 25.405 58.3443 26.1279L65.739 35.0029C66.315 35.7289 66.5843 36.6514 66.4893 37.5732C66.3943 38.4951 65.9426 39.3433 65.2307 39.9366C64.5187 40.5299 63.603 40.8213 62.6791 40.7485C61.7552 40.6756 60.8964 40.2444 60.2862 39.5469L52.8915 30.6719C52.2892 29.9487 51.9987 29.0159 52.0839 28.0786C52.1691 27.1413 52.6231 26.2762 53.3459 25.6735Z" fill="#131D29"/>
<path fill-rule="evenodd" clip-rule="evenodd" d="M53.3456 48.8765C52.6222 48.2743 52.1676 47.4095 52.0817 46.4721C51.9958 45.5348 52.2857 44.6018 52.8876 43.8781L60.2858 35.0031C60.58 34.6323 60.9454 34.3241 61.3606 34.0966C61.7757 33.8691 62.2321 33.7269 62.7029 33.6784C63.1738 33.6298 63.6496 33.676 64.1024 33.8141C64.5552 33.9522 64.9758 34.1794 65.3394 34.4825C65.7031 34.7855 66.0024 35.1582 66.2199 35.5787C66.4374 35.9991 66.5686 36.4588 66.6058 36.9307C66.643 37.4026 66.5854 37.8772 66.4365 38.3265C66.2876 38.7758 66.0503 39.1909 65.7386 39.5471L58.344 48.4221C57.7412 49.145 56.8761 49.5989 55.9388 49.6841C55.0015 49.7693 54.0688 49.4788 53.3456 48.8765Z" fill="#131D29"/>
<path fill-rule="evenodd" clip-rule="evenodd" d="M62.1249 37.275C62.1249 38.2165 61.7509 39.1195 61.0851 39.7852C60.4194 40.451 59.5164 40.825 58.5749 40.825H35.4999C34.5584 40.825 33.6554 40.451 32.9897 39.7852C32.3239 39.1195 31.9499 38.2165 31.9499 37.275C31.9499 36.3335 32.3239 35.4305 32.9897 34.7648C33.6554 34.099 34.5584 33.725 35.4999 33.725H58.5749C59.5164 33.725 60.4194 34.099 61.0851 34.7648C61.7509 35.4305 62.1249 36.3335 62.1249 37.275ZM10.6499 12.425C10.6499 11.4835 11.0239 10.5805 11.6897 9.91477C12.3554 9.24902 13.2584 8.875 14.1999 8.875H46.1499C47.0914 8.875 47.9944 9.24902 48.6601 9.91477C49.3259 10.5805 49.6999 11.4835 49.6999 12.425C49.6999 13.3665 49.3259 14.2695 48.6601 14.9352C47.9944 15.601 47.0914 15.975 46.1499 15.975H14.1999C13.2584 15.975 12.3554 15.601 11.6897 14.9352C11.0239 14.2695 10.6499 13.3665 10.6499 12.425ZM10.6499 62.125C10.6499 61.1835 11.0239 60.2805 11.6897 59.6148C12.3554 58.949 13.2584 58.575 14.1999 58.575H46.1499C47.0914 58.575 47.9944 58.949 48.6601 59.6148C49.3259 60.2805 49.6999 61.1835 49.6999 62.125C49.6999 63.0665 49.3259 63.9695 48.6601 64.6352C47.9944 65.301 47.0914 65.675 46.1499 65.675H14.1999C13.2584 65.675 12.3554 65.301 11.6897 64.6352C11.0239 63.9695 10.6499 63.0665 10.6499 62.125Z" fill="#131D29"/>
<path fill-rule="evenodd" clip-rule="evenodd" d="M46.1499 8.875C47.0914 8.875 47.9944 9.24902 48.6601 9.91477C49.3259 10.5805 49.6999 11.4835 49.6999 12.425V26.625C49.6999 27.5665 49.3259 28.4695 48.6601 29.1352C47.9944 29.801 47.0914 30.175 46.1499 30.175C45.2084 30.175 44.3054 29.801 43.6397 29.1352C42.9739 28.4695 42.5999 27.5665 42.5999 26.625V12.425C42.5999 11.4835 42.9739 10.5805 43.6397 9.91477C44.3054 9.24902 45.2084 8.875 46.1499 8.875ZM46.1499 44.375C47.0914 44.375 47.9944 44.749 48.6601 45.4148C49.3259 46.0805 49.6999 46.9835 49.6999 47.925V62.125C49.6999 63.0665 49.3259 63.9695 48.6601 64.6352C47.9944 65.301 47.0914 65.675 46.1499 65.675C45.2084 65.675 44.3054 65.301 43.6397 64.6352C42.9739 63.9695 42.5999 63.0665 42.5999 62.125V47.925C42.5999 46.9835 42.9739 46.0805 43.6397 45.4148C44.3054 44.749 45.2084 44.375 46.1499 44.375ZM14.1999 8.875C15.1414 8.875 16.0444 9.24902 16.7101 9.91477C17.3759 10.5805 17.7499 11.4835 17.7499 12.425V62.125C17.7499 63.0665 17.3759 63.9695 16.7101 64.6352C16.0444 65.301 15.1414 65.675 14.1999 65.675C13.2584 65.675 12.3554 65.301 11.6897 64.6352C11.0239 63.9695 10.6499 63.0665 10.6499 62.125V12.425C10.6499 11.4835 11.0239 10.5805 11.6897 9.91477C12.3554 9.24902 13.2584 8.875 14.1999 8.875Z" fill="#131D29"/>
</svg>
