<svg width="37" height="40" viewBox="0 0 37 40" fill="none" xmlns="http://www.w3.org/2000/svg">
<path d="M18.4997 0.583496C20.105 0.583496 21.6602 0.794913 23.1401 1.19087L19.331 4.99816C19.042 5.28829 18.7872 5.61049 18.5713 5.9585H18.4997C16.0192 5.9585 13.5944 6.69405 11.5319 8.07215C9.46943 9.45024 7.86193 11.409 6.91269 13.7007C5.96344 15.9924 5.71507 18.5141 6.19899 20.9469C6.68292 23.3798 7.87739 25.6145 9.63138 27.3685C11.3854 29.1224 13.6201 30.3169 16.0529 30.8008C18.4858 31.2848 21.0075 31.0364 23.2992 30.0872C25.5909 29.1379 27.5496 27.5304 28.9277 25.4679C30.3058 23.4055 31.0413 20.9807 31.0413 18.5002V18.4285C31.3877 18.2135 31.7072 17.9597 31.9999 17.667L35.809 13.8597C36.2049 15.3397 36.4163 16.8948 36.4163 18.5002C36.4163 28.3955 28.3951 36.4168 18.4997 36.4168C8.6043 36.4168 0.583008 28.3955 0.583008 18.5002C0.583008 8.60479 8.6043 0.583496 18.4997 0.583496ZM17.7579 9.57229C17.7579 11.097 17.6827 12.6432 17.7651 14.1661L16.7976 15.1336C16.4648 15.4664 16.2008 15.8615 16.0207 16.2964C15.8405 16.7312 15.7478 17.1973 15.7478 17.6679C15.7478 18.1386 15.8405 18.6047 16.0207 19.0395C16.2008 19.4743 16.4648 19.8694 16.7976 20.2022C17.1304 20.5351 17.5255 20.7991 17.9603 20.9792C18.3952 21.1593 18.8612 21.252 19.3319 21.252C19.8026 21.252 20.2686 21.1593 20.7035 20.9792C21.1383 20.7991 21.5334 20.5351 21.8662 20.2022L22.8337 19.2347C24.3566 19.3172 25.9011 19.2419 27.4275 19.2419C27.286 20.9446 26.6605 22.5713 25.6248 23.9302C24.5891 25.2891 23.1864 26.3234 21.5822 26.9113C19.9779 27.4991 18.239 27.6159 16.5705 27.2479C14.9021 26.8799 13.3736 26.0425 12.1655 24.8343C10.9574 23.6262 10.1199 22.0978 9.75192 20.4293C9.38393 18.7608 9.50074 17.0219 10.0886 15.4177C10.6764 13.8134 11.7108 12.4107 13.0697 11.375C14.4285 10.3393 16.0552 9.71382 17.7579 9.57229ZM30.1527 0.811038C30.4797 0.94663 30.7592 1.17607 30.956 1.47039C31.1527 1.76471 31.2579 2.11072 31.2581 2.46475V5.7435H34.5351C34.8894 5.74357 35.2357 5.84869 35.5303 6.04557C35.8249 6.24244 36.0544 6.52224 36.19 6.84957C36.3256 7.17691 36.3611 7.5371 36.292 7.88459C36.2229 8.23209 36.0523 8.5513 35.8018 8.80187L29.4647 15.1318C29.1288 15.4679 28.6731 15.6567 28.198 15.6568H23.8747L20.5995 18.9337C20.2633 19.2699 19.8073 19.4588 19.3319 19.4588C18.8565 19.4588 18.4005 19.2699 18.0643 18.9337C17.7281 18.5976 17.5392 18.1416 17.5392 17.6661C17.5392 17.1907 17.7281 16.7347 18.0643 16.3985L21.3413 13.1252V8.80008C21.3411 8.56451 21.3873 8.33122 21.4774 8.11356C21.5675 7.89589 21.6996 7.69813 21.8662 7.53158L28.1998 1.19804C28.4503 0.947325 28.7696 0.776563 29.1172 0.707356C29.4649 0.63815 29.8252 0.673608 30.1527 0.809246" fill="white"/>
</svg>
